<svg xmlns="http://www.w3.org/2000/svg" width="209.25" height="81" viewBox="0 0 209.25 81"><path fill="#ff5603" d="M206.574 25.117l-.151-.117h-11.382c-1.06-3-2.745-5.543-5.123-7.947-5.933-5.992-18.707-9.915-32.545-9.915-15.065 0-26.496 3.352-33.056 9.741-2.1 2.046-3.671 4.356-4.698 6.899-.831-.176-2.138-.457-2.933-.808-1.176-.518-2.686-1.104-4.926-1.639-1.747-.418-4.611-.864-6.832-.864s-5.084.443-6.833.862c-2.24.536-3.749 1.118-4.925 1.636-.693.305-1.776.553-2.595.728-1.028-2.515-2.59-4.813-4.67-6.84-6.56-6.389-17.989-9.767-33.055-9.767-13.837 0-26.614 3.974-32.545 9.966C17.928 19.457 16.243 22 15.184 25H3.802l-.263.117L3 26.773v.007l.539 1.881.263.339h10.345a19.86 19.86 0 0 0-.294 3.449c0 9.595 3.686 18.899 11.432 25.838 7.428 6.654 17.846 10.05 27.567 10.05 22.72 0 36.812-17.014 38.991-33.934.377-2.932.21-5.729-.475-8.327.921-.238 1.981-.537 2.422-.688 1.98-.681 3.706-1.094 6-1.438.93-.141 2.865-.105 4.471-.134.169-.003.497.184.646.184h.043c.15 0 .479-.188.647-.185 1.607.029 3.54.088 4.472.229 2.294.344 4.02.707 6 1.388.497.17 1.784.501 2.768.75-.666 2.573-.826 5.32-.453 8.219 2.179 16.919 16.27 33.913 38.99 33.913 9.722 0 20.139-3.429 27.567-10.083 7.746-6.938 11.431-16.184 11.431-25.779 0-1.232-.113-2.451-.294-3.451h10.346l.151-.339.425-1.882v-.007l-.426-1.656zM90.36 34.244c-2.138 16.613-15.775 32.895-37.508 32.895-20.653 0-37.507-14.574-37.507-34.812 0-4.973 1.511-9.902 6.09-14.528 5.694-5.752 18.354-9.414 31.417-9.414 28.294 0 39.31 11.861 37.508 25.859zm67.013 32.895c-21.734 0-35.369-16.282-37.508-32.895-1.804-13.998 9.214-25.858 37.508-25.858 13.063 0 25.723 3.661 31.417 9.414 4.578 4.626 6.09 9.555 6.09 14.528 0 20.236-16.855 34.811-37.507 34.811z"/></svg>