<svg xmlns="http://www.w3.org/2000/svg" width="209.25" height="81" viewBox="0 0 209.25 81"><path fill="#ff5603" d="M203.301 24.136l-.399-.136h-11.125c-1.007-3-2.609-6.043-4.871-8.667-5.641-6.541-17.789-10.818-30.948-10.818-14.325 0-25.194 3.66-31.431 10.635a22.354 22.354 0 0 0-4.426 7.413c-.867-.189-1.938-.451-2.643-.762-1.283-.565-2.931-1.204-5.377-1.789-1.908-.457-5.033-.943-7.457-.943s-5.551.484-7.459.941c-2.445.585-4.092 1.22-5.375 1.785-.705.311-1.776.565-2.644.754a22.435 22.435 0 0 0-4.424-7.425C78.485 8.149 67.617 4.462 53.291 4.462c-13.159 0-25.307 4.33-30.947 10.871C20.082 17.957 18.479 21 17.472 24H6.348l-.523.136L5 25.952v.008l.825 1.861.523.179h10.139c-.172 1-.28 2.611-.28 3.956 0 10.474 3.504 20.728 10.87 28.301 7.064 7.264 16.969 11.019 26.214 11.019 21.604 0 35.004-18.55 37.076-37.018.36-3.209.2-6.26-.457-9.102.983-.256 2.087-.562 2.554-.723 2.162-.743 4.045-1.191 6.549-1.566 1.018-.153 3.127-.076 4.882-.108.185-.004.542.24.705.24h.048c.162 0 .521-.244.705-.24 1.755.032 3.863.078 4.883.231 2.503.375 4.387.763 6.549 1.506.467.16 1.57.437 2.554.693-.656 2.842-.815 5.88-.456 9.09 2.071 18.469 15.471 37.018 37.075 37.018 9.245 0 19.15-3.744 26.214-11.008 7.366-7.573 10.871-17.858 10.871-28.332 0-1.345-.107-2.958-.28-3.958h10.14l.398-.179.699-1.86v-.008l-.699-1.816zM88.958 34.107c-2.034 18.135-15 35.908-35.666 35.908-19.639 0-35.667-15.907-35.667-38 0-5.429 1.437-10.809 5.792-15.859C28.832 9.877 40.87 5.88 53.292 5.88c26.902 0 37.38 12.947 35.666 28.227zm67 35.908c-20.667 0-33.633-17.772-35.667-35.908-1.713-15.28 8.764-28.227 35.667-28.227 12.423 0 24.46 3.997 29.875 10.276 4.354 5.05 5.792 10.43 5.792 15.859 0 22.092-16.027 38-35.667 38z"/></svg>