<svg xmlns="http://www.w3.org/2000/svg" width="209.25" height="71.5" viewBox="0 0 209.25 71.5"><path fill="#ff5603" d="M205.374 12.498l-.287-1.1-.549-1.015-.639-.766a.352.352 0 0 0-.066-.062l-.947-.668-1.018-.469-4.469-1.147-4.604-.958-4.602-.639-4.664-.383-4.658-.127-6.18.062-6.191.256-6.186.575-6.125.83-4.41.832-4.406 1.086-4.344 1.276-4.723 1.662-4.725 1.917-4.598 2.17-4.471 2.364-4.303 2.594-.762.383a.36.36 0 0 0-.145.131l-.049.076-.742.22-.803.064-4.268-.752-3.48-.441-3.534-.125-3.543.128-3.468.441-3.37.625-.801.123-.804-.049-.812-.225-.052-.087a.356.356 0 0 0-.143-.129l-.737-.368-4.345-2.619-4.468-2.361-4.599-2.171-4.723-1.916-4.726-1.661L63.494 8.8l-4.408-1.086-4.41-.831-6.123-.828-6.188-.575-6.182-.255-6.186-.062-4.662.128-4.664.384-4.605.641-4.596.959-4.517 1.166-1.012.479-.891.635a.369.369 0 0 0-.068.063l-.676.826-.54 1.036-.266 1.105.008 1.157.894 4.213 1.086 4.215 1.283 4.162 1.596 4.024 1.79 3.959 1.982 3.899 2.174 3.71L16.74 45.5l2.631 3.527 2.626 2.882 2.817 2.688 3.01 2.495 3.202 2.304 3.332 2.05 3.462 1.794 2.891 1.217 2.949.962 3.026.771 3.005.468L52.72 67h2.94l3.092-.154 3.069-.456 3.021-.585 2.954-.839 2.951-1.092 2.824-1.287 2.763-1.544 2.568-1.733 2.507-1.998 2.551-2.453 2.09-2.283 2.017-2.647 1.89-2.773 1.767-2.904 1.761-3.396 1.635-3.46 1.498-3.498.528-1.129.71-.957.951-.899 1.005-.657 1.231-.494c.012-.004 1.187-.373 3.398-.373 2.198 0 3.374.365 3.376.365l1.193.47 1.014.65.961.892.715.941.559 1.178 1.512 3.524 1.635 3.459 1.768 3.406 1.766 2.898 1.893 2.772 2.023 2.658 2.084 2.272 2.225 2.157 2.844 2.296 2.57 1.732 2.762 1.541 2.824 1.283 2.953 1.089 2.957.835 3.006.575 3.09.468 3.068.15h2.93c.012 0 .025-.021.037-.023l3.004-.33 3.025-.459 3.014-.772 2.955-.967 2.889-1.22 3.457-1.795 3.33-2.051 3.201-2.306 3.01-2.496 2.814-2.69L189.538 49l2.615-3.513 2.43-3.583 2.174-3.708 1.979-3.896 1.789-3.96 1.598-4.035 1.279-4.151 1.086-4.214.896-4.274-.01-1.168zM89.272 33.052l-.376 2.318-.501 2.321-.877 2.82-1.066 2.693-1.317 2.572-1.505 2.506-1.378 2.006-1.568 1.881-1.754 1.756-.163.146-.141.141-1.847 1.656-2.611 1.91-2.803 1.658-2.867 1.336-3.376 1.211-3.44.828-2.93.447-2.931.254-2.995-.064-2.419-.189-2.356-.383-2.676-.574-2.675-.827-2.611-1.084-2.485-1.209-2.357-1.465-2.293-1.656-2.101-1.848-1.912-1.975-1.847-2.102-1.593-2.23-1.529-2.293-2.165-3.822-1.848-3.947-1.209-3.376-1.019-3.441-.574-2.484-.319-2.483-.191-2.548.128-2.932.317-1.272.511-1.148.7-1.017.955-.892 1.084-.637 2.42-1.081 2.485-.76 3.758-.884 3.821-.623 3.824-.242L42.765 12h4.776l4.333.022 4.33.3 4.524.657 4.395.933 3.376.947 3.312 1.076 3.185 1.27 2.613 1.146 2.548 1.401 2.484 1.526 1.974 1.465 1.785 1.722.049.062.128.124.941 1.191.815 1.315.563 1.379.314 1.504.124 1.506-.062 1.506zm102.866-6.993l-.318 2.483-.574 2.484-1.02 3.439-1.211 3.378-1.846 3.947-2.166 3.822-1.529 2.293-1.592 2.23-1.848 2.102-1.912 1.975-2.102 1.848-2.293 1.656-2.355 1.465-2.486 1.209-2.611 1.084-2.676.828-2.674.574-2.357.383-2.42.189-2.994.064-2.932-.254-2.93-.447-3.439-.83-3.377-1.209-2.865-1.336-2.803-1.658-2.611-1.91-.018-.016-.408-.299-1.816-1.629-1.756-1.756-1.566-1.881-1.379-2.006-1.506-2.506-1.316-2.572-1.064-2.693-.877-2.82-.502-2.321-.377-2.318-.061-1.504.123-1.506.314-1.504.564-1.379.814-1.315.939-1.191 1.756-1.694 1.945-1.439.037-.023.291-.216 2.484-1.527 2.549-1.401 2.611-1.148 3.186-1.271 3.311-1.08 3.377-.954 4.395-.948 4.523-.686 4.332-.242 4.333-.023h4.777l6.115.022 3.822.3 3.822.594 3.758.87 2.484.753 2.42 1.077 1.084.635.955.891.699 1.018.51 1.146.318 1.273.129 2.931-.19 2.549z"/></svg>