<svg xmlns="http://www.w3.org/2000/svg" width="209.25" height="81" viewBox="0 0 209.25 81"><path fill="#ff5603" d="M4.354 24c-.069 0-.354.31-.354.379v3.049c0 .069.192.125.261.125l.739.004v.614c0 .033-.009.065.015.088s.044.037.078.037l9.946-.009c-.219 2.142-.303 4.438-.303 6.932 0 6.779 2.051 14.661 5.489 21.084 6.274 11.717 15.207 17.174 28.113 17.174 8.245 0 17.048-3.765 24.788-10.601 7.767-6.859 14.161-16.556 18.005-27.303 1.272-3.561 1.996-6.547 2.348-9.685.016-.152.045-.372.078-.616l.097-.698c.24-1.804.602-1.979.892-2.12.023-.012.616-.286 3.786-.363 1.346.013 3.039-.073 5.131-.069l1.156-.022h.102l1.107.054c2.092-.003 3.763.019 5.103.006 3.186.078 3.755.367 3.805.392.265.128.622.31.862 2.114l.072.552c.041.303.078.586.098.77.35 3.137 1.074 6.125 2.348 9.686 3.844 10.747 10.237 20.442 18.004 27.302 7.739 6.836 16.543 10.602 24.788 10.602 12.907 0 21.841-5.457 28.113-17.173 3.439-6.424 5.493-14.306 5.493-21.085 0-2.494-.081-4.79-.301-6.932L204 28.21v-.653l.739-.004c.069 0 .261-.056.261-.125v-3.049c0-.069-.034-.379-.104-.379h-11.497c-.994-4-2.795-7.629-5.979-10.814-4.562-4.563-16.829-7.92-31.251-8.365-2.439-.074-4.319-.167-6.285-.167-18.134 0-28.348 2.621-32.142 8.313-.617.924-1.189 2.071-1.75 3.536a5.19 5.19 0 0 0-.201.621 5.15 5.15 0 0 1-.13.434l-.037.109c-.344 1.017-.565 1.223-.854 1.248-.486.042-1.785.058-3.854.078-1.292-.036-3.118.008-5.194.008h-2.198c-2.045 0-3.858-.044-5.192-.008-2.105-.021-3.367-.044-3.858-.086-.288-.025-.509-.228-.854-1.247l-.038-.106c-.048-.147-.08-.263-.113-.381l-.016-.056a5.224 5.224 0 0 0-.201-.627c-.559-1.462-1.131-2.625-1.749-3.553-3.798-5.692-14.012-8.343-32.143-8.343-1.983 0-3.863.032-6.286.106-14.421.444-26.688 3.924-31.25 8.487C18.641 16.37 16.84 20 15.847 24H4.354zm87.563 1.723c-.348 3.003-1.068 6.057-2.238 9.332-7.761 21.697-24.983 36.879-41.341 36.879-12.895 0-21.025-5.655-26.754-16.357-3.226-6.025-5.311-13.671-5.311-20.357 0-9.212 1.088-15.632 6.643-21.188 4.135-4.135 15.549-7.339 30.208-7.791 2.274-.07 4.184-.105 6.237-.105 17.571 0 27.376 2.433 30.86 7.656.549.828 1.225 1.805 1.606 3.391.382 1.585.522 4.812.09 8.54zm95.744 29.853c-5.729 10.702-13.86 16.357-26.754 16.357-16.357 0-33.579-15.182-41.341-36.879-1.171-3.274-1.891-6.329-2.238-9.332-.431-3.728-.292-6.955.09-8.541.381-1.586 1.056-2.563 1.607-3.391 3.482-5.223 13.289-7.656 30.858-7.656 2.052 0 3.963.035 6.237.105 14.66.452 26.072 3.656 30.208 7.791 5.556 5.555 6.642 11.975 6.642 21.188.001 6.687-2.083 14.333-5.309 20.358z"/></svg>