<svg xmlns="http://www.w3.org/2000/svg" width="209.25" height="81" viewBox="0 0 209.25 81"><path fill="#ff5603" d="M204.577 18.26c-.084-1.506-2.377-2.153-2.469-2.178-4.277-1.418-20.277-6.043-46.575-6.043-11.384 0-22.258 2.273-30.197 3.932-1.584.331-3.079.644-4.464.916-7.586 1.488-8.941 1.586-14.904 1.586l-.117.005-.07-.005c-5.955 0-7.311-.098-14.899-1.586-1.385-.272-2.881-.585-4.465-.916-7.939-1.659-18.812-3.932-30.195-3.932-26.298 0-42.298 4.625-46.569 6.042-.098.027-2.389.674-2.475 2.18-.079 1.417-.001 5.934 0 5.975 0 .011-.004 1.084 1.032 1.491.519.205 1.092.379 1.7.563 2.066.627 4.203 1.277 4.626 3.196l.26 1.188c1.276 5.856 4.264 19.57 8.23 28.131 4.388 9.474 15.731 11.362 26.249 11.96 1.99.112 4.211.202 6.57.202 7.101 0 15.452-.81 22.509-4.224 2.655-1.285 4.819-3.147 6.811-5.859.015-.02 1.579-2.032 3.654-6.087 1.914-3.738 4.668-10.031 6.929-18.786.017-.071 1.653-7.126 2.677-8.371 1.264-1.54 2.705-2.274 7.454-2.277 4.748.003 6.19.738 7.456 2.277 1.022 1.245 2.659 8.3 2.677 8.374 4.326 16.752 10.519 24.791 10.578 24.867 1.994 2.715 4.159 4.577 6.813 5.862 7.058 3.414 15.408 4.224 22.51 4.224 2.358 0 4.581-.09 6.57-.202 10.517-.598 21.859-2.486 26.248-11.96 3.965-8.563 6.954-22.278 8.23-28.135l.259-1.184c.423-1.919 2.56-2.568 4.626-3.196.607-.185 1.182-.359 1.7-.563 1.037-.407 1.032-1.48 1.032-1.487 0-.047.077-4.563-.001-5.98zM93.072 26.368c-.319 5.402-3.18 20.178-7.391 28.042-4.21 7.865-6.971 10.08-14.517 11.908-7.547 1.828-25.451 2.949-36.672-1.343-3.483-1.33-6.19-3.245-7.716-6.3-5.562-11.137-7.126-23.758-7.18-32.13-.036-5.629 3.485-7.447 3.485-7.447s9.295-5.601 32.652-5.481c23.355.119 33.127 4.885 33.127 4.885s4.529 2.465 4.212 7.866zm91.906 32.308c-1.526 3.055-4.232 4.97-7.716 6.3-11.221 4.292-29.126 3.171-36.672 1.343-7.547-1.828-10.308-4.043-14.518-11.908-4.21-7.864-7.07-22.641-7.389-28.042-.318-5.401 4.21-7.865 4.21-7.865s9.772-4.766 33.127-4.885c23.357-.12 32.652 5.481 32.652 5.481s3.521 1.818 3.484 7.447c-.052 8.37-1.617 20.992-7.178 32.129z"/></svg>