<svg xmlns="http://www.w3.org/2000/svg" width="209.25" height="81" viewBox="0 0 209.25 81"><path fill="#ff5603" d="M205.118 33.146l-.594-.146h-10.689c-3.366-18-18.427-30.032-36.449-30.032-17.623 0-32.409 12.295-36.204 28.783-.865-.184-2.07-.474-2.826-.807-1.228-.54-2.805-1.16-5.144-1.719-1.825-.438-4.816-.905-7.135-.905s-5.31.459-7.137.897c-2.339.56-3.915 1.168-5.143 1.708-.601.265-1.485.487-2.259.661C87.699 15.16 72.943 2.968 55.364 2.968 37.342 2.968 22.28 15 18.914 33H8.226l-.469.146L7 34.9v.008l.757 1.851.469.241h10.117c-.083 1-.137 2.022-.137 3.058 0 20.488 16.669 37.15 37.158 37.15s37.158-16.672 37.158-37.161c0-2.012-.167-3.988-.476-5.914.929-.243 1.957-.532 2.396-.682 2.068-.711 3.87-1.142 6.265-1.5.974-.147 2.992-.111 4.672-.142.176-.003.518.191.675.191h.045c.154 0 .498-.195.674-.191 1.681.031 3.697.094 4.672.24 2.394.359 4.197.74 6.266 1.451.532.182 1.93.541 2.966.802a37.141 37.141 0 0 0-.449 5.755c0 20.489 16.669 37.151 37.158 37.151s37.158-16.658 37.158-37.147c0-1.035-.054-2.06-.138-3.06h10.118l.594-.24.882-1.852V34.9l-.882-1.754zM55.364 75.288c-19.434 0-35.245-15.811-35.245-35.244 0-19.434 15.811-35.245 35.245-35.245 19.434 0 35.244 15.811 35.244 35.245 0 19.434-15.81 35.244-35.244 35.244zm102.022 0c-19.435 0-35.244-15.811-35.244-35.244 0-19.434 15.81-35.245 35.244-35.245 19.434 0 35.244 15.811 35.244 35.245 0 19.434-15.811 35.244-35.244 35.244z"/></svg>