<svg viewBox="0 0 338.64 157.68" xmlns="http://www.w3.org/2000/svg"><path d="M193.11 0h33.07v153.54h-33.07zm-65.23 0v45.13l33.08-33.15v-12zm0 153.54h33.08V44.92l-33.08 33.14zM61.74 0v104.51q0 11-5.63 16.8t-15.27 5.75a29.51 29.51 0 0 1-18.61-6.22L0 143.13q16.78 14.54 43.37 14.55a66.81 66.81 0 0 0 20.09-3 48.22 48.22 0 0 0 16.86-9.2 44.29 44.29 0 0 0 11.72-15.88q4.35-9.67 4.36-22.79V0zm259.27 127.77c-.67.35-1.35.7-2 1a20.38 20.38 0 0 1-8.73 1.73q-6.66 0-9.76-4.26t-3.1-12.09V61.46h27.79v-26h-27.83V0h-33.06v35.45h-17v26h17v50.87a76.05 76.05 0 0 0 2.07 18.42 35.28 35.28 0 0 0 6.93 14.16 32.37 32.37 0 0 0 12.63 9.21q7.8 3.35 19.29 3.34 18.06 0 33.45-12z" fill="#2b5475"/></svg>